<svg width="1600" height="900" viewBox="0 0 1600 900" fill="none" xmlns="http://www.w3.org/2000/svg">
<defs>
  <linearGradient id="bg" x1="0" y1="0" x2="1600" y2="900" gradientUnits="userSpaceOnUse"><stop offset="0" stop-color="#030711"/><stop offset="0.42" stop-color="#07111f"/><stop offset="1" stop-color="#02040a"/></linearGradient>
  <radialGradient id="blueGlow" cx="50%" cy="50%" r="50%"><stop offset="0" stop-color="#3B82F6" stop-opacity="0.55"/><stop offset="1" stop-color="#3B82F6" stop-opacity="0"/></radialGradient>
  <radialGradient id="cyanGlow" cx="50%" cy="50%" r="50%"><stop offset="0" stop-color="#22D3EE" stop-opacity="0.40"/><stop offset="1" stop-color="#22D3EE" stop-opacity="0"/></radialGradient>
  <radialGradient id="violetGlow" cx="50%" cy="50%" r="50%"><stop offset="0" stop-color="#A855F7" stop-opacity="0.40"/><stop offset="1" stop-color="#A855F7" stop-opacity="0"/></radialGradient>
  <linearGradient id="card" x1="0" y1="0" x2="1" y2="1"><stop offset="0" stop-color="#111827" stop-opacity="0.98"/><stop offset="1" stop-color="#070B12" stop-opacity="0.98"/></linearGradient>
  <linearGradient id="panel" x1="0" y1="0" x2="1" y2="1"><stop offset="0" stop-color="#0F172A"/><stop offset="1" stop-color="#050914"/></linearGradient>
  <linearGradient id="blueStroke" x1="0" y1="0" x2="1" y2="0"><stop offset="0" stop-color="#60A5FA"/><stop offset="0.5" stop-color="#22D3EE"/><stop offset="1" stop-color="#818CF8"/></linearGradient>
  <filter id="softShadow" x="-30%" y="-30%" width="160%" height="160%"><feDropShadow dx="0" dy="16" stdDeviation="20" flood-color="#000000" flood-opacity="0.55"/></filter>
  <filter id="glowBlue" x="-80%" y="-80%" width="260%" height="260%"><feGaussianBlur stdDeviation="5" result="b"/><feMerge><feMergeNode in="b"/><feMergeNode in="SourceGraphic"/></feMerge></filter>
  <pattern id="grid" width="40" height="40" patternUnits="userSpaceOnUse"><path d="M40 0H0V40" fill="none" stroke="#94A3B8" stroke-opacity="0.055" stroke-width="1"/></pattern>
  <marker id="arrowBlue" markerWidth="12" markerHeight="12" refX="10" refY="6" orient="auto"><path d="M0 0L12 6L0 12Z" fill="#60A5FA"/></marker>
  <marker id="arrowGreen" markerWidth="12" markerHeight="12" refX="10" refY="6" orient="auto"><path d="M0 0L12 6L0 12Z" fill="#86EFAC"/></marker>
  <style>
    .title{font-family:Inter,Segoe UI,Arial,sans-serif;font-weight:800;letter-spacing:-1.2px;fill:#F8FAFC}
    .sub{font-family:Inter,Segoe UI,Arial,sans-serif;font-weight:500;fill:#94A3B8}
    .label{font-family:Inter,Segoe UI,Arial,sans-serif;font-weight:700;fill:#E2E8F0}
    .small{font-family:Inter,Segoe UI,Arial,sans-serif;font-weight:500;fill:#CBD5E1}
    .micro{font-family:Inter,Segoe UI,Arial,sans-serif;font-weight:500;fill:#94A3B8}
    .mono{font-family:JetBrains Mono,Consolas,monospace;font-weight:600;fill:#A7F3D0}
  </style>
</defs>
<rect width="1600" height="900" fill="url(#bg)"/><rect width="1600" height="900" fill="url(#grid)"/><circle cx="1260" cy="160" r="280" fill="url(#blueGlow)"/><circle cx="350" cy="760" r="330" fill="url(#violetGlow)"/><circle cx="840" cy="450" r="420" fill="url(#cyanGlow)" opacity="0.36"/>
<text x="800" y="64" text-anchor="middle" class="title" font-size="42">TotalReClaw Architecture</text><text x="800" y="98" text-anchor="middle" class="sub" font-size="18">OpenClaw hooks · bounded recall · reviewed persistence</text><g filter="url(#softShadow)"><rect x="88" y="135" width="1424" height="94" rx="20" fill="url(#card)" stroke="#A78BFA" stroke-opacity="0.72"/><rect x="90" y="137" width="1420" height="90" rx="18" fill="none" stroke="#FFFFFF" stroke-opacity="0.06"/><g transform="translate(120,161)" fill="none" stroke="#A78BFA" stroke-width="2.4" stroke-linecap="round" stroke-linejoin="round"><rect x="5" y="8" width="32" height="26" rx="4"/><path d="M12 17l6 5-6 5M22 28h9"/></g><text x="184" y="173" class="label" font-size="19">1. OPERATOR + OPENCLAW</text><text x="184" y="201" class="micro" font-size="14">Prompt input, commands, files, terminal context</text><rect x="570" y="157" width="190" height="50" rx="12" fill="#0B1220" stroke="#A78BFA" stroke-opacity="0.28"/><text x="665" y="188" text-anchor="middle" class="small" font-size="14">/totalreclaw check</text><rect x="785" y="157" width="190" height="50" rx="12" fill="#0B1220" stroke="#A78BFA" stroke-opacity="0.28"/><text x="880" y="188" text-anchor="middle" class="small" font-size="14">manual capture</text><rect x="1000" y="157" width="190" height="50" rx="12" fill="#0B1220" stroke="#A78BFA" stroke-opacity="0.28"/><text x="1095" y="188" text-anchor="middle" class="small" font-size="14">session close</text><rect x="1215" y="157" width="190" height="50" rx="12" fill="#0B1220" stroke="#A78BFA" stroke-opacity="0.28"/><text x="1310" y="188" text-anchor="middle" class="small" font-size="14">explain context</text></g><path d="M800 231V257" stroke="#A78BFA" stroke-width="3" marker-end="url(#arrowBlue)" opacity="0.75"/><g filter="url(#softShadow)"><rect x="88" y="251" width="1424" height="94" rx="20" fill="url(#card)" stroke="#60A5FA" stroke-opacity="0.72"/><rect x="90" y="253" width="1420" height="90" rx="18" fill="none" stroke="#FFFFFF" stroke-opacity="0.06"/><g transform="translate(120,277)" fill="none" stroke="#60A5FA" stroke-width="2.4" stroke-linecap="round" stroke-linejoin="round"><circle cx="18" cy="18" r="10"/><path d="M26 26l10 10"/></g><text x="184" y="289" class="label" font-size="19">2. BEFORE-PROMPT RECALL</text><text x="184" y="317" class="micro" font-size="14">Bounded search before risky work; fail-open on errors</text><rect x="570" y="273" width="190" height="50" rx="12" fill="#0B1220" stroke="#60A5FA" stroke-opacity="0.28"/><text x="665" y="304" text-anchor="middle" class="small" font-size="14">query classifier</text><rect x="785" y="273" width="190" height="50" rx="12" fill="#0B1220" stroke="#60A5FA" stroke-opacity="0.28"/><text x="880" y="304" text-anchor="middle" class="small" font-size="14">recall limits</text><rect x="1000" y="273" width="190" height="50" rx="12" fill="#0B1220" stroke="#60A5FA" stroke-opacity="0.28"/><text x="1095" y="304" text-anchor="middle" class="small" font-size="14">prior fixes</text><rect x="1215" y="273" width="190" height="50" rx="12" fill="#0B1220" stroke="#60A5FA" stroke-opacity="0.28"/><text x="1310" y="304" text-anchor="middle" class="small" font-size="14">risk hints</text></g><path d="M800 347V373" stroke="#60A5FA" stroke-width="3" marker-end="url(#arrowBlue)" opacity="0.75"/><g filter="url(#softShadow)"><rect x="88" y="367" width="1424" height="94" rx="20" fill="url(#card)" stroke="#22D3EE" stroke-opacity="0.72"/><rect x="90" y="369" width="1420" height="90" rx="18" fill="none" stroke="#FFFFFF" stroke-opacity="0.06"/><g transform="translate(120,393)" fill="none" stroke="#22D3EE" stroke-width="2.4" stroke-linecap="round" stroke-linejoin="round"><rect x="5" y="7" width="12" height="12" rx="2"/><rect x="25" y="7" width="12" height="12" rx="2"/><rect x="15" y="27" width="12" height="12" rx="2"/><path d="M17 13h8M21 27V19M30 19l-5 8"/></g><text x="184" y="405" class="label" font-size="19">3. CONTEXT INJECTION</text><text x="184" y="433" class="micro" font-size="14">Reference cards surfaced to agent, never hidden memory magic</text><rect x="570" y="389" width="190" height="50" rx="12" fill="#0B1220" stroke="#22D3EE" stroke-opacity="0.28"/><text x="665" y="420" text-anchor="middle" class="small" font-size="14">accepted fixes</text><rect x="785" y="389" width="190" height="50" rx="12" fill="#0B1220" stroke="#22D3EE" stroke-opacity="0.28"/><text x="880" y="420" text-anchor="middle" class="small" font-size="14">decisions</text><rect x="1000" y="389" width="190" height="50" rx="12" fill="#0B1220" stroke="#22D3EE" stroke-opacity="0.28"/><text x="1095" y="420" text-anchor="middle" class="small" font-size="14">blockers</text><rect x="1215" y="389" width="190" height="50" rx="12" fill="#0B1220" stroke="#22D3EE" stroke-opacity="0.28"/><text x="1310" y="420" text-anchor="middle" class="small" font-size="14">session summaries</text></g><path d="M800 463V489" stroke="#22D3EE" stroke-width="3" marker-end="url(#arrowBlue)" opacity="0.75"/><g filter="url(#softShadow)"><rect x="88" y="483" width="1424" height="94" rx="20" fill="url(#card)" stroke="#FBBF24" stroke-opacity="0.72"/><rect x="90" y="485" width="1420" height="90" rx="18" fill="none" stroke="#FFFFFF" stroke-opacity="0.06"/><g transform="translate(120,509)" fill="none" stroke="#FBBF24" stroke-width="2.4" stroke-linecap="round" stroke-linejoin="round"><path d="M21 4l4 13 13 4-13 4-4 13-4-13-13-4 13-4 4-13Z"/></g><text x="184" y="521" class="label" font-size="19">4. MESSAGE-WRITE CAPTURE</text><text x="184" y="549" class="micro" font-size="14">Collect useful session evidence into reviewable draft objects</text><rect x="570" y="505" width="190" height="50" rx="12" fill="#0B1220" stroke="#FBBF24" stroke-opacity="0.28"/><text x="665" y="536" text-anchor="middle" class="small" font-size="14">commands</text><rect x="785" y="505" width="190" height="50" rx="12" fill="#0B1220" stroke="#FBBF24" stroke-opacity="0.28"/><text x="880" y="536" text-anchor="middle" class="small" font-size="14">files changed</text><rect x="1000" y="505" width="190" height="50" rx="12" fill="#0B1220" stroke="#FBBF24" stroke-opacity="0.28"/><text x="1095" y="536" text-anchor="middle" class="small" font-size="14">tool notes</text><rect x="1215" y="505" width="190" height="50" rx="12" fill="#0B1220" stroke="#FBBF24" stroke-opacity="0.28"/><text x="1310" y="536" text-anchor="middle" class="small" font-size="14">summary draft</text></g><path d="M800 579V605" stroke="#FBBF24" stroke-width="3" marker-end="url(#arrowBlue)" opacity="0.75"/><g filter="url(#softShadow)"><rect x="88" y="599" width="1424" height="94" rx="20" fill="url(#card)" stroke="#F472B6" stroke-opacity="0.72"/><rect x="90" y="601" width="1420" height="90" rx="18" fill="none" stroke="#FFFFFF" stroke-opacity="0.06"/><g transform="translate(120,625)" fill="none" stroke="#F472B6" stroke-width="2.4" stroke-linecap="round" stroke-linejoin="round"><path d="M21 5l14 6v10c0 9-6 15-14 18C13 36 7 30 7 21V11l14-6Z"/><path d="M14 22l5 5 10-12"/></g><text x="184" y="637" class="label" font-size="19">5. REVIEW + APPROVAL</text><text x="184" y="665" class="micro" font-size="14">Operator accepts, rejects, edits, or resolves conflicts</text><rect x="570" y="621" width="190" height="50" rx="12" fill="#0B1220" stroke="#F472B6" stroke-opacity="0.28"/><text x="665" y="652" text-anchor="middle" class="small" font-size="14">JSON draft</text><rect x="785" y="621" width="190" height="50" rx="12" fill="#0B1220" stroke="#F472B6" stroke-opacity="0.28"/><text x="880" y="652" text-anchor="middle" class="small" font-size="14">redaction</text><rect x="1000" y="621" width="190" height="50" rx="12" fill="#0B1220" stroke="#F472B6" stroke-opacity="0.28"/><text x="1095" y="652" text-anchor="middle" class="small" font-size="14">diff review</text><rect x="1215" y="621" width="190" height="50" rx="12" fill="#0B1220" stroke="#F472B6" stroke-opacity="0.28"/><text x="1310" y="652" text-anchor="middle" class="small" font-size="14">conflict resolve</text></g><path d="M800 695V721" stroke="#F472B6" stroke-width="3" marker-end="url(#arrowBlue)" opacity="0.75"/><g filter="url(#softShadow)"><rect x="88" y="715" width="1424" height="94" rx="20" fill="url(#card)" stroke="#86EFAC" stroke-opacity="0.72"/><rect x="90" y="717" width="1420" height="90" rx="18" fill="none" stroke="#FFFFFF" stroke-opacity="0.06"/><g transform="translate(120,741)" fill="none" stroke="#86EFAC" stroke-width="2.4" stroke-linecap="round" stroke-linejoin="round"><ellipse cx="21" cy="12" rx="13" ry="6"/><path d="M8 12v18c0 3 6 6 13 6s13-3 13-6V12"/><path d="M8 21c0 3 6 6 13 6s13-3 13-6"/></g><text x="184" y="753" class="label" font-size="19">6. DURABLE MEMORY STORE</text><text x="184" y="781" class="micro" font-size="14">SQLite records + draft files remain inspectable and portable</text><rect x="570" y="737" width="190" height="50" rx="12" fill="#0B1220" stroke="#86EFAC" stroke-opacity="0.28"/><text x="665" y="768" text-anchor="middle" class="small" font-size="14">SQLite</text><rect x="785" y="737" width="190" height="50" rx="12" fill="#0B1220" stroke="#86EFAC" stroke-opacity="0.28"/><text x="880" y="768" text-anchor="middle" class="small" font-size="14">draft JSON</text><rect x="1000" y="737" width="190" height="50" rx="12" fill="#0B1220" stroke="#86EFAC" stroke-opacity="0.28"/><text x="1095" y="768" text-anchor="middle" class="small" font-size="14">timeline</text><rect x="1215" y="737" width="190" height="50" rx="12" fill="#0B1220" stroke="#86EFAC" stroke-opacity="0.28"/><text x="1310" y="768" text-anchor="middle" class="small" font-size="14">search index</text></g><g transform="translate(300 842)"><rect width="1000" height="34" rx="17" fill="#050914" stroke="#1E293B"/><circle cx="62" cy="17" r="5" fill="#A78BFA"/><text x="76" y="22" class="micro" font-size="12">Input</text><circle cx="205" cy="17" r="5" fill="#60A5FA"/><text x="219" y="22" class="micro" font-size="12">Recall</text><circle cx="348" cy="17" r="5" fill="#22D3EE"/><text x="362" y="22" class="micro" font-size="12">Context</text><circle cx="515" cy="17" r="5" fill="#FBBF24"/><text x="529" y="22" class="micro" font-size="12">Capture</text><circle cx="680" cy="17" r="5" fill="#F472B6"/><text x="694" y="22" class="micro" font-size="12">Review</text><circle cx="835" cy="17" r="5" fill="#86EFAC"/><text x="849" y="22" class="micro" font-size="12">Memory</text></g>
</svg>