<svg width="1600" height="900" viewBox="0 0 1600 900" fill="none" xmlns="http://www.w3.org/2000/svg">
<defs>
  <linearGradient id="bg" x1="0" y1="0" x2="1600" y2="900" gradientUnits="userSpaceOnUse"><stop offset="0" stop-color="#030711"/><stop offset="0.42" stop-color="#07111f"/><stop offset="1" stop-color="#02040a"/></linearGradient>
  <radialGradient id="blueGlow" cx="50%" cy="50%" r="50%"><stop offset="0" stop-color="#3B82F6" stop-opacity="0.55"/><stop offset="1" stop-color="#3B82F6" stop-opacity="0"/></radialGradient>
  <radialGradient id="cyanGlow" cx="50%" cy="50%" r="50%"><stop offset="0" stop-color="#22D3EE" stop-opacity="0.40"/><stop offset="1" stop-color="#22D3EE" stop-opacity="0"/></radialGradient>
  <radialGradient id="violetGlow" cx="50%" cy="50%" r="50%"><stop offset="0" stop-color="#A855F7" stop-opacity="0.40"/><stop offset="1" stop-color="#A855F7" stop-opacity="0"/></radialGradient>
  <linearGradient id="card" x1="0" y1="0" x2="1" y2="1"><stop offset="0" stop-color="#111827" stop-opacity="0.98"/><stop offset="1" stop-color="#070B12" stop-opacity="0.98"/></linearGradient>
  <linearGradient id="panel" x1="0" y1="0" x2="1" y2="1"><stop offset="0" stop-color="#0F172A"/><stop offset="1" stop-color="#050914"/></linearGradient>
  <linearGradient id="blueStroke" x1="0" y1="0" x2="1" y2="0"><stop offset="0" stop-color="#60A5FA"/><stop offset="0.5" stop-color="#22D3EE"/><stop offset="1" stop-color="#818CF8"/></linearGradient>
  <filter id="softShadow" x="-30%" y="-30%" width="160%" height="160%"><feDropShadow dx="0" dy="16" stdDeviation="20" flood-color="#000000" flood-opacity="0.55"/></filter>
  <filter id="glowBlue" x="-80%" y="-80%" width="260%" height="260%"><feGaussianBlur stdDeviation="5" result="b"/><feMerge><feMergeNode in="b"/><feMergeNode in="SourceGraphic"/></feMerge></filter>
  <pattern id="grid" width="40" height="40" patternUnits="userSpaceOnUse"><path d="M40 0H0V40" fill="none" stroke="#94A3B8" stroke-opacity="0.055" stroke-width="1"/></pattern>
  <marker id="arrowBlue" markerWidth="12" markerHeight="12" refX="10" refY="6" orient="auto"><path d="M0 0L12 6L0 12Z" fill="#60A5FA"/></marker>
  <marker id="arrowGreen" markerWidth="12" markerHeight="12" refX="10" refY="6" orient="auto"><path d="M0 0L12 6L0 12Z" fill="#86EFAC"/></marker>
  <style>
    .title{font-family:Inter,Segoe UI,Arial,sans-serif;font-weight:800;letter-spacing:-1.2px;fill:#F8FAFC}
    .sub{font-family:Inter,Segoe UI,Arial,sans-serif;font-weight:500;fill:#94A3B8}
    .label{font-family:Inter,Segoe UI,Arial,sans-serif;font-weight:700;fill:#E2E8F0}
    .small{font-family:Inter,Segoe UI,Arial,sans-serif;font-weight:500;fill:#CBD5E1}
    .micro{font-family:Inter,Segoe UI,Arial,sans-serif;font-weight:500;fill:#94A3B8}
    .mono{font-family:JetBrains Mono,Consolas,monospace;font-weight:600;fill:#A7F3D0}
  </style>
</defs>
<rect width="1600" height="900" fill="url(#bg)"/><rect width="1600" height="900" fill="url(#grid)"/><circle cx="1260" cy="160" r="280" fill="url(#blueGlow)"/><circle cx="350" cy="760" r="330" fill="url(#violetGlow)"/><circle cx="840" cy="450" r="420" fill="url(#cyanGlow)" opacity="0.36"/>
<text x="800" y="82" text-anchor="middle" class="title" font-size="50">TotalReClaw</text>
<text x="800" y="122" text-anchor="middle" class="sub" font-size="20">Review-first operational memory for OpenClaw</text>
<g opacity="0.9"><line x1="535" y1="150" x2="1065" y2="150" stroke="url(#blueStroke)" stroke-width="2"/><circle cx="800" cy="150" r="5" fill="#60A5FA" filter="url(#glowBlue)"/></g>
<g transform="translate(800 430)">
<circle r="208" fill="#020617" fill-opacity="0.38" stroke="#1E293B" stroke-width="1.5"/>
<circle r="158" fill="none" stroke="#38BDF8" stroke-opacity="0.18" stroke-width="2" stroke-dasharray="4 9"/>
<circle r="114" fill="url(#panel)" stroke="url(#blueStroke)" stroke-width="3" filter="url(#glowBlue)"/>
<circle r="78" fill="#07111f" stroke="#1D4ED8" stroke-opacity="0.7"/>
<g fill="none" stroke="#60A5FA" stroke-width="2" stroke-linecap="round" stroke-linejoin="round" transform="translate(-24 -50) scale(1.15)"><path d="M21 4l18 10v20L21 44 3 34V14L21 4Z"/><path d="M21 4v40M3 14l18 10 18-10M3 34l18-10 18 10"/></g>
<text y="34" text-anchor="middle" class="title" font-size="26">CORE RECALL</text>
<text y="66" text-anchor="middle" class="micro" font-size="14">bounded · explainable · review-gated</text>
</g><g filter="url(#softShadow)"><rect x="110" y="200" width="315" height="115" rx="24" fill="url(#card)" stroke="#A78BFA" stroke-opacity="0.75"/><rect x="111" y="201" width="313" height="113" rx="23" fill="none" stroke="#FFFFFF" stroke-opacity="0.06"/><g transform="translate(138,230)" fill="none" stroke="#A78BFA" stroke-width="2.4" stroke-linecap="round" stroke-linejoin="round"><circle cx="18" cy="18" r="10"/><path d="M26 26l10 10"/></g><text x="198" y="250" class="label" font-size="20">Prompt Recall</text><text x="198" y="280" class="micro" font-size="15">Find prior fixes before risky work</text></g><g filter="url(#softShadow)"><rect x="1175" y="200" width="315" height="115" rx="24" fill="url(#card)" stroke="#86EFAC" stroke-opacity="0.75"/><rect x="1176" y="201" width="313" height="113" rx="23" fill="none" stroke="#FFFFFF" stroke-opacity="0.06"/><g transform="translate(1203,230)" fill="none" stroke="#86EFAC" stroke-width="2.4" stroke-linecap="round" stroke-linejoin="round"><ellipse cx="21" cy="12" rx="13" ry="6"/><path d="M8 12v18c0 3 6 6 13 6s13-3 13-6V12"/><path d="M8 21c0 3 6 6 13 6s13-3 13-6"/></g><text x="1263" y="250" class="label" font-size="20">Accepted Memory</text><text x="1263" y="280" class="micro" font-size="15">SQLite-backed durable records</text></g><g filter="url(#softShadow)"><rect x="82" y="390" width="315" height="115" rx="24" fill="url(#card)" stroke="#60A5FA" stroke-opacity="0.75"/><rect x="83" y="391" width="313" height="113" rx="23" fill="none" stroke="#FFFFFF" stroke-opacity="0.06"/><g transform="translate(110,420)" fill="none" stroke="#60A5FA" stroke-width="2.4" stroke-linecap="round" stroke-linejoin="round"><rect x="5" y="8" width="32" height="26" rx="4"/><path d="M12 17l6 5-6 5M22 28h9"/></g><text x="170" y="440" class="label" font-size="20">Session Capture</text><text x="170" y="470" class="micro" font-size="15">Commands, files, tools, notes</text></g><g filter="url(#softShadow)"><rect x="1203" y="390" width="315" height="115" rx="24" fill="url(#card)" stroke="#FBBF24" stroke-opacity="0.75"/><rect x="1204" y="391" width="313" height="113" rx="23" fill="none" stroke="#FFFFFF" stroke-opacity="0.06"/><g transform="translate(1231,420)" fill="none" stroke="#FBBF24" stroke-width="2.4" stroke-linecap="round" stroke-linejoin="round"><path d="M21 5l14 6v10c0 9-6 15-14 18C13 36 7 30 7 21V11l14-6Z"/><path d="M14 22l5 5 10-12"/></g><text x="1291" y="440" class="label" font-size="20">Review Drafts</text><text x="1291" y="470" class="micro" font-size="15">Nothing persists without approval</text></g><g filter="url(#softShadow)"><rect x="162" y="580" width="315" height="115" rx="24" fill="url(#card)" stroke="#22D3EE" stroke-opacity="0.75"/><rect x="163" y="581" width="313" height="113" rx="23" fill="none" stroke="#FFFFFF" stroke-opacity="0.06"/><g transform="translate(190,610)" fill="none" stroke="#22D3EE" stroke-width="2.4" stroke-linecap="round" stroke-linejoin="round"><rect x="5" y="7" width="12" height="12" rx="2"/><rect x="25" y="7" width="12" height="12" rx="2"/><rect x="15" y="27" width="12" height="12" rx="2"/><path d="M17 13h8M21 27V19M30 19l-5 8"/></g><text x="250" y="630" class="label" font-size="20">Conflict Resolve</text><text x="250" y="660" class="micro" font-size="15">Explain, compare, accept/reject</text></g><g filter="url(#softShadow)"><rect x="1123" y="580" width="315" height="115" rx="24" fill="url(#card)" stroke="#F472B6" stroke-opacity="0.75"/><rect x="1124" y="581" width="313" height="113" rx="23" fill="none" stroke="#FFFFFF" stroke-opacity="0.06"/><g transform="translate(1151,610)" fill="none" stroke="#F472B6" stroke-width="2.4" stroke-linecap="round" stroke-linejoin="round"><path d="M21 4l4 13 13 4-13 4-4 13-4-13-13-4 13-4 4-13Z"/></g><text x="1211" y="630" class="label" font-size="20">OpenClaw Hooks</text><text x="1211" y="660" class="micro" font-size="15">prompt + write/reset hooks</text></g><g stroke-width="2" stroke-linecap="round" opacity="0.9"><path d="M425 258 C 538 258, 538 356, 652 356" stroke="#A78BFA" stroke-opacity="0.75"/><circle cx="652" cy="356" r="5" fill="#A78BFA" filter="url(#glowBlue)"/><path d="M1175 258 C 1061 258, 1061 356, 948 356" stroke="#86EFAC" stroke-opacity="0.75"/><circle cx="948" cy="356" r="5" fill="#86EFAC" filter="url(#glowBlue)"/><path d="M397 448 C 491 448, 491 430, 586 430" stroke="#60A5FA" stroke-opacity="0.75"/><circle cx="586" cy="430" r="5" fill="#60A5FA" filter="url(#glowBlue)"/><path d="M1203 448 C 1108 448, 1108 430, 1014 430" stroke="#FBBF24" stroke-opacity="0.75"/><circle cx="1014" cy="430" r="5" fill="#FBBF24" filter="url(#glowBlue)"/><path d="M477 638 C 563 638, 563 520, 650 520" stroke="#22D3EE" stroke-opacity="0.75"/><circle cx="650" cy="520" r="5" fill="#22D3EE" filter="url(#glowBlue)"/><path d="M1123 638 C 1036 638, 1036 520, 950 520" stroke="#F472B6" stroke-opacity="0.75"/><circle cx="950" cy="520" r="5" fill="#F472B6" filter="url(#glowBlue)"/></g><g transform="translate(180 760)"><rect x="0" y="0" width="1240" height="70" rx="22" fill="#070B12" stroke="#1E293B"/><line x1="0" y1="1" x2="1240" y2="1" stroke="url(#blueStroke)" stroke-opacity="0.7"/><circle cx="50" cy="35" r="8" fill="#86EFAC"/><text x="72" y="41" class="small" font-size="16">100% Review First</text><circle cx="295" cy="35" r="8" fill="#60A5FA"/><text x="317" y="41" class="small" font-size="16">Fail Open Hooks</text><circle cx="540" cy="35" r="8" fill="#A78BFA"/><text x="562" y="41" class="small" font-size="16">Privacy-Gated</text><circle cx="785" cy="35" r="8" fill="#FBBF24"/><text x="807" y="41" class="small" font-size="16">GitHub Ready SVG</text><circle cx="1030" cy="35" r="8" fill="#22D3EE"/><text x="1052" y="41" class="small" font-size="16">Operator Approved</text></g>
</svg>